<svg width="14" height="16" viewBox="0 0 14 16" fill="none" xmlns="http://www.w3.org/2000/svg">
<path d="M6.99967 0.0830078C3.31634 0.0830078 0.333008 0.499674 0.333008 3.41634V11.7497C0.333008 12.483 0.658008 13.1413 1.16634 13.5997V15.083C1.16634 15.5413 1.54134 15.9163 1.99967 15.9163H2.83301C3.29134 15.9163 3.66634 15.5413 3.66634 15.083V14.2497H10.333V15.083C10.333 15.5413 10.708 15.9163 11.1663 15.9163H11.9997C12.458 15.9163 12.833 15.5413 12.833 15.083V13.5997C13.3413 13.1413 13.6663 12.483 13.6663 11.7497V3.41634C13.6663 0.499674 10.683 0.0830078 6.99967 0.0830078ZM11.7163 2.57467H2.28301C2.74134 2.13301 3.92467 1.74967 6.99967 1.74967C10.0747 1.74967 11.258 2.13301 11.7163 2.57467ZM11.9997 4.24134V6.74967H1.99967V4.24134H11.9997ZM11.7163 12.358L11.4747 12.583H2.52467L2.28301 12.358C2.17467 12.2663 1.99967 12.058 1.99967 11.7497V8.41634H11.9997V11.7497C11.9997 12.058 11.8247 12.2663 11.7163 12.358Z" fill="#5F6772"/>
<path d="M4.08301 11.7497C4.77336 11.7497 5.33301 11.19 5.33301 10.4997C5.33301 9.80932 4.77336 9.24967 4.08301 9.24967C3.39265 9.24967 2.83301 9.80932 2.83301 10.4997C2.83301 11.19 3.39265 11.7497 4.08301 11.7497Z" fill="#5F6772"/>
<path d="M9.91634 11.7497C10.6067 11.7497 11.1663 11.19 11.1663 10.4997C11.1663 9.80932 10.6067 9.24967 9.91634 9.24967C9.22598 9.24967 8.66634 9.80932 8.66634 10.4997C8.66634 11.19 9.22598 11.7497 9.91634 11.7497Z" fill="#5F6772"/>
</svg>
