<svg width="14" height="12" viewBox="0 0 14 12" fill="none" xmlns="http://www.w3.org/2000/svg">
<path d="M7 9.66667C7.875 9.66667 8.61875 9.375 9.23125 8.79167C9.84375 8.20833 10.15 7.5 10.15 6.66667C10.15 5.83333 9.84375 5.125 9.23125 4.54167C8.61875 3.95833 7.875 3.66667 7 3.66667C6.125 3.66667 5.38125 3.95833 4.76875 4.54167C4.15625 5.125 3.85 5.83333 3.85 6.66667C3.85 7.5 4.15625 8.20833 4.76875 8.79167C5.38125 9.375 6.125 9.66667 7 9.66667ZM7 8.33333C6.51 8.33333 6.09583 8.17222 5.7575 7.85C5.41917 7.52778 5.25 7.13333 5.25 6.66667C5.25 6.2 5.41917 5.80556 5.7575 5.48333C6.09583 5.16111 6.51 5 7 5C7.49 5 7.90417 5.16111 8.2425 5.48333C8.58083 5.80556 8.75 6.2 8.75 6.66667C8.75 7.13333 8.58083 7.52778 8.2425 7.85C7.90417 8.17222 7.49 8.33333 7 8.33333ZM1.4 12C1.015 12 0.685417 11.8694 0.41125 11.6083C0.137083 11.3472 0 11.0333 0 10.6667V2.66667C0 2.3 0.137083 1.98611 0.41125 1.725C0.685417 1.46389 1.015 1.33333 1.4 1.33333H3.605L4.9 0H9.1L10.395 1.33333H12.6C12.985 1.33333 13.3146 1.46389 13.5887 1.725C13.8629 1.98611 14 2.3 14 2.66667V10.6667C14 11.0333 13.8629 11.3472 13.5887 11.6083C13.3146 11.8694 12.985 12 12.6 12H1.4Z" fill="#1C85E7"/>
</svg>
