<svg width="60" height="59" viewBox="0 0 60 59" fill="none" xmlns="http://www.w3.org/2000/svg">
<path fill-rule="evenodd" clip-rule="evenodd" d="M37.8689 59C37.8736 59 37.8784 59 37.8831 59H37.8557C37.8601 59 37.8645 59 37.8689 59ZM32.8291 56.667C34.3633 57.7894 36.0614 58.9937 37.8689 59C38.3034 58.9983 38.7116 58.9163 39.1466 58.7804C41.4598 57.9918 42.317 55.4521 43.0806 53.1897L43.102 53.1263C43.459 52.0833 44.0084 50.4913 44.4479 50.162C44.8873 49.8326 46.4804 49.7503 47.5242 49.7503C47.5675 49.7487 47.6109 49.7472 47.6544 49.7457C49.9299 49.6652 52.4951 49.5744 53.8966 47.5545C55.2579 45.5958 54.5414 43.0439 53.9135 40.8075L53.8966 40.7476C53.567 39.5948 53.1276 38.0028 53.3198 37.3715C53.4846 36.8226 54.6932 35.8619 55.5722 35.1758L55.5873 35.1636C57.4239 33.6844 59.5 32.0124 59.5 29.4942C59.5 26.976 57.4239 25.3039 55.5873 23.8248L55.5722 23.8126C54.6932 23.1264 53.4846 22.1658 53.3198 21.6168C53.1276 20.9855 53.567 19.3936 53.8966 18.2408C54.5559 15.9901 55.27 13.4101 53.8966 11.4339C52.4683 9.37533 49.8315 9.29299 47.5242 9.2381C46.4804 9.21065 44.8873 9.15576 44.4479 8.82639C44.0073 8.5156 43.5177 7.08066 43.1639 6.0435C43.1428 5.9815 43.1221 5.92092 43.102 5.86208C42.3603 3.58396 41.4814 1.00392 39.1466 0.207946C36.8826 -0.555276 34.754 0.955371 32.8684 2.29352L32.8291 2.32139L32.8139 2.33248C31.908 2.99085 30.6009 3.94077 30 3.94077C29.4223 3.94077 28.167 3.03782 27.2896 2.40679C27.2492 2.3777 27.2096 2.3492 27.1709 2.32139C25.3031 0.949022 23.1606 -0.560578 20.8534 0.207946C18.5403 0.996542 17.683 3.53631 16.9194 5.79869L16.898 5.86208C16.541 6.90508 15.9916 8.49702 15.5521 8.82639C15.1127 9.15576 13.5196 9.2381 12.4758 9.2381C12.4325 9.23964 12.3891 9.24118 12.3457 9.24271C10.0701 9.3232 7.50488 9.41393 6.10335 11.4339C4.74215 13.3926 5.45862 15.9444 6.08653 18.1809L6.10335 18.2408C6.43296 19.3936 6.87244 20.9855 6.68017 21.6168C6.51536 22.1658 5.3068 23.1264 4.42784 23.8126L4.41269 23.8248C2.57609 25.3039 0.5 26.976 0.5 29.4942C0.5 32.0124 2.5761 33.6844 4.41271 35.1636L4.42784 35.1758C5.3068 35.8619 6.51536 36.8226 6.68017 37.3715C6.87244 38.0028 6.43296 39.5948 6.10335 40.7476C5.44413 42.9982 4.72998 45.5783 6.10335 47.5545C7.53166 49.613 10.1685 49.6954 12.4758 49.7503C13.5196 49.7777 15.1127 49.8326 15.5521 50.162C15.9927 50.4728 16.4823 51.9077 16.8361 52.9449C16.8572 53.0069 16.8779 53.0674 16.898 53.1263C17.6397 55.4044 18.5186 57.9845 20.8534 58.7804C23.127 59.5377 25.2139 58.0562 27.0878 56.7259L27.1709 56.667L27.1862 56.6559C28.0921 55.9975 29.3991 55.0476 30 55.0476C30.5777 55.0476 31.8331 55.9506 32.7104 56.5816C32.7508 56.6107 32.7904 56.6392 32.8291 56.667ZM26.0311 35.9768C26.4183 36.3645 26.9087 36.5454 27.3991 36.5454C27.8896 36.5454 28.38 36.3645 28.7672 35.9768L39.0922 25.6377C39.8408 24.8882 39.8408 23.6475 39.0922 22.8979C38.3436 22.1483 37.1046 22.1483 36.3561 22.8979L27.3991 31.867L23.6047 28.0674C22.8561 27.3178 21.6171 27.3178 20.8686 28.0674C20.12 28.817 20.12 30.0577 20.8686 30.8073L26.0311 35.9768Z" fill="#1C85E7"/>
</svg>
