<svg width="11" height="19" viewBox="0 0 11 19" fill="none" xmlns="http://www.w3.org/2000/svg">
<path d="M10.4587 9.35491C10.4487 9.00335 10.3181 8.70201 10.0469 8.4308L2.23214 0.78683C2.00112 0.565848 1.72991 0.445313 1.39844 0.445313C0.725446 0.445313 0.203125 0.967634 0.203125 1.64062C0.203125 1.96205 0.333705 2.26339 0.564732 2.49442L7.59598 9.35491L0.564732 16.2154C0.333705 16.4464 0.203125 16.7377 0.203125 17.0692C0.203125 17.7422 0.725446 18.2645 1.39844 18.2645C1.71987 18.2645 2.00112 18.144 2.23214 17.923L10.0469 10.269C10.3281 10.0078 10.4587 9.70647 10.4587 9.35491Z" fill="#007B2D"/>
</svg>
