<svg width="40" height="41" viewBox="0 0 40 41" fill="none" xmlns="http://www.w3.org/2000/svg">
<path d="M17.2 29.3464L31.3 15.2464L28.5 12.4464L17.2 23.7464L11.5 18.0464L8.7 20.8464L17.2 29.3464ZM20 40.1464C17.2333 40.1464 14.6333 39.6214 12.2 38.5714C9.76667 37.5214 7.65 36.0964 5.85 34.2964C4.05 32.4964 2.625 30.3797 1.575 27.9464C0.525 25.513 0 22.913 0 20.1464C0 17.3797 0.525 14.7797 1.575 12.3464C2.625 9.91303 4.05 7.79636 5.85 5.99636C7.65 4.19636 9.76667 2.77136 12.2 1.72136C14.6333 0.671362 17.2333 0.146362 20 0.146362C22.7667 0.146362 25.3667 0.671362 27.8 1.72136C30.2333 2.77136 32.35 4.19636 34.15 5.99636C35.95 7.79636 37.375 9.91303 38.425 12.3464C39.475 14.7797 40 17.3797 40 20.1464C40 22.913 39.475 25.513 38.425 27.9464C37.375 30.3797 35.95 32.4964 34.15 34.2964C32.35 36.0964 30.2333 37.5214 27.8 38.5714C25.3667 39.6214 22.7667 40.1464 20 40.1464Z" fill="#007B2D"/>
</svg>
