<svg width="17" height="17" viewBox="0 0 17 17" fill="none" xmlns="http://www.w3.org/2000/svg">
<path d="M15.3333 16.5208L13.1458 14.3333H2.1875V12C2.1875 11.5278 2.30903 11.0938 2.55208 10.6979C2.79514 10.3021 3.11806 10 3.52083 9.79167C4.14583 9.47222 4.78125 9.21528 5.42708 9.02083C6.07292 8.82639 6.72917 8.68056 7.39583 8.58333L0 1.1875L1.1875 0L16.5208 15.3333L15.3333 16.5208ZM3.85417 12.6667H11.4792L8.97917 10.1667C8.95139 10.1667 8.93056 10.1667 8.91667 10.1667C8.90278 10.1667 8.88194 10.1667 8.85417 10.1667C8.07639 10.1667 7.30556 10.2604 6.54167 10.4479C5.77778 10.6354 5.02083 10.9167 4.27083 11.2917C4.14583 11.3611 4.04514 11.4583 3.96875 11.5833C3.89236 11.7083 3.85417 11.8472 3.85417 12V12.6667ZM14.1875 9.79167C14.5903 9.98611 14.9097 10.2812 15.1458 10.6771C15.3819 11.0729 15.5069 11.5 15.5208 11.9583L12.7292 9.16667C12.9792 9.26389 13.2257 9.36111 13.4688 9.45833C13.7118 9.55556 13.9514 9.66667 14.1875 9.79167ZM10.6875 7.125L9.45833 5.89583C9.77778 5.77083 10.0347 5.56597 10.2292 5.28125C10.4236 4.99653 10.5208 4.68056 10.5208 4.33333C10.5208 3.875 10.3576 3.48264 10.0312 3.15625C9.70486 2.82986 9.3125 2.66667 8.85417 2.66667C8.50694 2.66667 8.19097 2.76389 7.90625 2.95833C7.62153 3.15278 7.41667 3.40972 7.29167 3.72917L6.0625 2.5C6.38194 2.02778 6.78472 1.65972 7.27083 1.39583C7.75694 1.13194 8.28472 1 8.85417 1C9.77083 1 10.5556 1.32639 11.2083 1.97917C11.8611 2.63194 12.1875 3.41667 12.1875 4.33333C12.1875 4.90278 12.0556 5.43056 11.7917 5.91667C11.5278 6.40278 11.1597 6.80556 10.6875 7.125ZM11.4792 12.6667H3.85417C3.85417 12.6667 3.89236 12.6667 3.96875 12.6667C4.04514 12.6667 4.14583 12.6667 4.27083 12.6667C4.64583 12.6667 5.03472 12.6667 5.4375 12.6667C5.84028 12.6667 6.31597 12.6667 6.86458 12.6667C7.41319 12.6667 8.05903 12.6667 8.80208 12.6667C9.54514 12.6667 10.4375 12.6667 11.4792 12.6667Z" fill="#DC2626"/>
</svg>
