<svg width="11" height="11" viewBox="0 0 11 11" fill="none" xmlns="http://www.w3.org/2000/svg">
<path fill-rule="evenodd" clip-rule="evenodd" d="M5.5 0.5C6.19036 0.5 6.75 1.05964 6.75 1.75L6.74875 6.23875L8.36429 4.61794C8.81396 4.16641 9.52293 4.13028 10.0141 4.51055L10.1321 4.61429C10.5836 5.06397 10.6197 5.77293 10.2395 6.26408L10.1357 6.38205L6.40117 10.1321C5.9515 10.5836 5.24253 10.6197 4.75137 10.2394L4.6334 10.1357L0.867937 6.3857C0.378778 5.89855 0.37715 5.1071 0.8643 4.61794C1.31398 4.16641 2.02294 4.13029 2.51409 4.51056L2.63206 4.6143L4.24875 6.22375L4.25 1.75C4.25 1.05964 4.80964 0.5 5.5 0.5Z" fill="#DC3312"/>
</svg>
