<svg width="17" height="18" viewBox="0 0 17 18" fill="none" xmlns="http://www.w3.org/2000/svg">
<path d="M9.49375 9.75C9.09375 9.1875 8.56563 8.79688 7.90938 8.57813C7.25313 8.35938 6.575 8.25 5.875 8.25C5.175 8.25 4.49688 8.35938 3.84063 8.57813C3.18438 8.79688 2.65625 9.1875 2.25625 9.75H9.49375ZM0.25 11.25C0.25 9.8875 0.81875 8.79688 1.95625 7.97813C3.09375 7.15938 4.4 6.75 5.875 6.75C7.35 6.75 8.65625 7.15938 9.79375 7.97813C10.9313 8.79688 11.5 9.8875 11.5 11.25H0.25ZM0.25 14.25V12.75H11.5V14.25H0.25ZM13 17.25V15.75H14.05L15.1 5.25H7.9375L7.75 3.75H11.5V0.75H13V3.75H16.75L15.5125 16.1625C15.475 16.475 15.3375 16.7344 15.1 16.9406C14.8625 17.1469 14.5875 17.25 14.275 17.25H13ZM1 17.25C0.7875 17.25 0.609375 17.1781 0.465625 17.0344C0.321875 16.8906 0.25 16.7125 0.25 16.5V15.75H11.5V16.5C11.5 16.7125 11.4281 16.8906 11.2844 17.0344C11.1406 17.1781 10.9625 17.25 10.75 17.25H1Z" fill="#6D79E7"/>
</svg>
