<svg width="25" height="24" viewBox="0 0 25 24" fill="none" xmlns="http://www.w3.org/2000/svg">
<path d="M15.833 22.71L10.733 17.61L12.413 15.93L15.833 19.35L22.613 12.57L24.293 14.25L15.833 22.71ZM22.433 10.8H20.033V4.8H17.633V8.4H5.63301V4.8H3.23301V21.6H10.433V24H3.23301C2.57301 24 2.00801 23.765 1.53801 23.295C1.06801 22.825 0.833008 22.26 0.833008 21.6V4.8C0.833008 4.14 1.06801 3.575 1.53801 3.105C2.00801 2.635 2.57301 2.4 3.23301 2.4H8.24301C8.46301 1.7 8.89301 1.125 9.53301 0.675C10.173 0.225 10.873 0 11.633 0C12.433 0 13.148 0.225 13.778 0.675C14.408 1.125 14.833 1.7 15.053 2.4H20.033C20.693 2.4 21.258 2.635 21.728 3.105C22.198 3.575 22.433 4.14 22.433 4.8V10.8ZM11.633 4.8C11.973 4.8 12.258 4.685 12.488 4.455C12.718 4.225 12.833 3.94 12.833 3.6C12.833 3.26 12.718 2.975 12.488 2.745C12.258 2.515 11.973 2.4 11.633 2.4C11.293 2.4 11.008 2.515 10.778 2.745C10.548 2.975 10.433 3.26 10.433 3.6C10.433 3.94 10.548 4.225 10.778 4.455C11.008 4.685 11.293 4.8 11.633 4.8Z" fill="#1C85E7"/>
</svg>
