<svg width="358" height="291" viewBox="0 0 358 291" fill="none" xmlns="http://www.w3.org/2000/svg">
<rect x="0.5" y="0.5" width="357" height="290" rx="11.5" fill="#F1F1F1" fill-opacity="0.9"/>
<rect x="0.5" y="0.5" width="357" height="290" rx="11.5" stroke="#E5E5E5"/>
<path d="M186.499 107.167H166.499C164.666 107.167 163.166 108.667 163.166 110.5V133.833H166.499V110.5H186.499V107.167ZM184.833 113.833H173.166C171.333 113.833 169.849 115.333 169.849 117.167L169.833 140.5C169.833 142.333 171.316 143.833 173.149 143.833H191.499C193.333 143.833 194.833 142.333 194.833 140.5V123.833L184.833 113.833ZM173.166 140.5V117.167H183.166V125.5H191.499V140.5H173.166Z" fill="#B0B6BE"/>
<path d="M109.628 175.5H107.576L101.402 166.158V175.5H99.35V162.972H101.402L107.576 172.296V162.972H109.628V175.5ZM116.625 175.662C115.689 175.662 114.843 175.452 114.087 175.032C113.331 174.6 112.737 174 112.305 173.232C111.873 172.452 111.657 171.552 111.657 170.532C111.657 169.524 111.879 168.63 112.323 167.85C112.767 167.07 113.373 166.47 114.141 166.05C114.909 165.63 115.767 165.42 116.715 165.42C117.663 165.42 118.521 165.63 119.289 166.05C120.057 166.47 120.663 167.07 121.107 167.85C121.551 168.63 121.773 169.524 121.773 170.532C121.773 171.54 121.545 172.434 121.089 173.214C120.633 173.994 120.009 174.6 119.217 175.032C118.437 175.452 117.573 175.662 116.625 175.662ZM116.625 173.88C117.153 173.88 117.645 173.754 118.101 173.502C118.569 173.25 118.947 172.872 119.235 172.368C119.523 171.864 119.667 171.252 119.667 170.532C119.667 169.812 119.529 169.206 119.253 168.714C118.977 168.21 118.611 167.832 118.155 167.58C117.699 167.328 117.207 167.202 116.679 167.202C116.151 167.202 115.659 167.328 115.203 167.58C114.759 167.832 114.405 168.21 114.141 168.714C113.877 169.206 113.745 169.812 113.745 170.532C113.745 171.6 114.015 172.428 114.555 173.016C115.107 173.592 115.797 173.88 116.625 173.88ZM127.793 170.496C127.793 169.5 127.997 168.618 128.405 167.85C128.825 167.082 129.389 166.488 130.097 166.068C130.817 165.636 131.615 165.42 132.491 165.42C133.139 165.42 133.775 165.564 134.399 165.852C135.035 166.128 135.539 166.5 135.911 166.968V162.18H137.981V175.5H135.911V174.006C135.575 174.486 135.107 174.882 134.507 175.194C133.919 175.506 133.241 175.662 132.473 175.662C131.609 175.662 130.817 175.446 130.097 175.014C129.389 174.57 128.825 173.958 128.405 173.178C127.997 172.386 127.793 171.492 127.793 170.496ZM135.911 170.532C135.911 169.848 135.767 169.254 135.479 168.75C135.203 168.246 134.837 167.862 134.381 167.598C133.925 167.334 133.433 167.202 132.905 167.202C132.377 167.202 131.885 167.334 131.429 167.598C130.973 167.85 130.601 168.228 130.313 168.732C130.037 169.224 129.899 169.812 129.899 170.496C129.899 171.18 130.037 171.78 130.313 172.296C130.601 172.812 130.973 173.208 131.429 173.484C131.897 173.748 132.389 173.88 132.905 173.88C133.433 173.88 133.925 173.748 134.381 173.484C134.837 173.22 135.203 172.836 135.479 172.332C135.767 171.816 135.911 171.216 135.911 170.532ZM139.992 170.496C139.992 169.5 140.196 168.618 140.604 167.85C141.024 167.082 141.588 166.488 142.296 166.068C143.016 165.636 143.808 165.42 144.672 165.42C145.452 165.42 146.13 165.576 146.706 165.888C147.294 166.188 147.762 166.566 148.11 167.022V165.582H150.18V175.5H148.11V174.024C147.762 174.492 147.288 174.882 146.688 175.194C146.088 175.506 145.404 175.662 144.636 175.662C143.784 175.662 143.004 175.446 142.296 175.014C141.588 174.57 141.024 173.958 140.604 173.178C140.196 172.386 139.992 171.492 139.992 170.496ZM148.11 170.532C148.11 169.848 147.966 169.254 147.678 168.75C147.402 168.246 147.036 167.862 146.58 167.598C146.124 167.334 145.632 167.202 145.104 167.202C144.576 167.202 144.084 167.334 143.628 167.598C143.172 167.85 142.8 168.228 142.512 168.732C142.236 169.224 142.098 169.812 142.098 170.496C142.098 171.18 142.236 171.78 142.512 172.296C142.8 172.812 143.172 173.208 143.628 173.484C144.096 173.748 144.588 173.88 145.104 173.88C145.632 173.88 146.124 173.748 146.58 173.484C147.036 173.22 147.402 172.836 147.678 172.332C147.966 171.816 148.11 171.216 148.11 170.532ZM155.269 167.256V172.746C155.269 173.118 155.353 173.388 155.521 173.556C155.701 173.712 156.001 173.79 156.421 173.79H157.681V175.5H156.061C155.137 175.5 154.429 175.284 153.937 174.852C153.445 174.42 153.199 173.718 153.199 172.746V167.256H152.029V165.582H153.199V163.116H155.269V165.582H157.681V167.256H155.269ZM158.889 170.496C158.889 169.5 159.093 168.618 159.501 167.85C159.921 167.082 160.485 166.488 161.193 166.068C161.913 165.636 162.705 165.42 163.569 165.42C164.349 165.42 165.027 165.576 165.603 165.888C166.191 166.188 166.659 166.566 167.007 167.022V165.582H169.077V175.5H167.007V174.024C166.659 174.492 166.185 174.882 165.585 175.194C164.985 175.506 164.301 175.662 163.533 175.662C162.681 175.662 161.901 175.446 161.193 175.014C160.485 174.57 159.921 173.958 159.501 173.178C159.093 172.386 158.889 171.492 158.889 170.496ZM167.007 170.532C167.007 169.848 166.863 169.254 166.575 168.75C166.299 168.246 165.933 167.862 165.477 167.598C165.021 167.334 164.529 167.202 164.001 167.202C163.473 167.202 162.981 167.334 162.525 167.598C162.069 167.85 161.697 168.228 161.409 168.732C161.133 169.224 160.995 169.812 160.995 170.496C160.995 171.18 161.133 171.78 161.409 172.296C161.697 172.812 162.069 173.208 162.525 173.484C162.993 173.748 163.485 173.88 164.001 173.88C164.529 173.88 165.021 173.748 165.477 173.484C165.933 173.22 166.299 172.836 166.575 172.332C166.863 171.816 167.007 171.216 167.007 170.532ZM175.764 170.496C175.764 169.5 175.968 168.618 176.376 167.85C176.796 167.082 177.36 166.488 178.068 166.068C178.788 165.636 179.58 165.42 180.444 165.42C181.224 165.42 181.902 165.576 182.478 165.888C183.066 166.188 183.534 166.566 183.882 167.022V165.582H185.952V175.5H183.882V174.024C183.534 174.492 183.06 174.882 182.46 175.194C181.86 175.506 181.176 175.662 180.408 175.662C179.556 175.662 178.776 175.446 178.068 175.014C177.36 174.57 176.796 173.958 176.376 173.178C175.968 172.386 175.764 171.492 175.764 170.496ZM183.882 170.532C183.882 169.848 183.738 169.254 183.45 168.75C183.174 168.246 182.808 167.862 182.352 167.598C181.896 167.334 181.404 167.202 180.876 167.202C180.348 167.202 179.856 167.334 179.4 167.598C178.944 167.85 178.572 168.228 178.284 168.732C178.008 169.224 177.87 169.812 177.87 170.496C177.87 171.18 178.008 171.78 178.284 172.296C178.572 172.812 178.944 173.208 179.4 173.484C179.868 173.748 180.36 173.88 180.876 173.88C181.404 173.88 181.896 173.748 182.352 173.484C182.808 173.22 183.174 172.836 183.45 172.332C183.738 171.816 183.882 171.216 183.882 170.532ZM192.481 173.664L195.289 165.582H197.467L193.687 175.5H191.239L187.477 165.582H189.673L192.481 173.664ZM198.334 170.496C198.334 169.5 198.538 168.618 198.946 167.85C199.366 167.082 199.93 166.488 200.638 166.068C201.358 165.636 202.15 165.42 203.014 165.42C203.794 165.42 204.472 165.576 205.048 165.888C205.636 166.188 206.104 166.566 206.452 167.022V165.582H208.522V175.5H206.452V174.024C206.104 174.492 205.63 174.882 205.03 175.194C204.43 175.506 203.746 175.662 202.978 175.662C202.126 175.662 201.346 175.446 200.638 175.014C199.93 174.57 199.366 173.958 198.946 173.178C198.538 172.386 198.334 171.492 198.334 170.496ZM206.452 170.532C206.452 169.848 206.308 169.254 206.02 168.75C205.744 168.246 205.378 167.862 204.922 167.598C204.466 167.334 203.974 167.202 203.446 167.202C202.918 167.202 202.426 167.334 201.97 167.598C201.514 167.85 201.142 168.228 200.854 168.732C200.578 169.224 200.44 169.812 200.44 170.496C200.44 171.18 200.578 171.78 200.854 172.296C201.142 172.812 201.514 173.208 201.97 173.484C202.438 173.748 202.93 173.88 203.446 173.88C203.974 173.88 204.466 173.748 204.922 173.484C205.378 173.22 205.744 172.836 206.02 172.332C206.308 171.816 206.452 171.216 206.452 170.532ZM212.261 164.268C211.889 164.268 211.577 164.142 211.325 163.89C211.073 163.638 210.947 163.326 210.947 162.954C210.947 162.582 211.073 162.27 211.325 162.018C211.577 161.766 211.889 161.64 212.261 161.64C212.621 161.64 212.927 161.766 213.179 162.018C213.431 162.27 213.557 162.582 213.557 162.954C213.557 163.326 213.431 163.638 213.179 163.89C212.927 164.142 212.621 164.268 212.261 164.268ZM213.269 165.582V175.5H211.217V165.582H213.269ZM218.015 162.18V175.5H215.963V162.18H218.015ZM220.025 170.496C220.025 169.5 220.229 168.618 220.637 167.85C221.057 167.082 221.621 166.488 222.329 166.068C223.049 165.636 223.841 165.42 224.705 165.42C225.485 165.42 226.163 165.576 226.739 165.888C227.327 166.188 227.795 166.566 228.143 167.022V165.582H230.213V175.5H228.143V174.024C227.795 174.492 227.321 174.882 226.721 175.194C226.121 175.506 225.437 175.662 224.669 175.662C223.817 175.662 223.037 175.446 222.329 175.014C221.621 174.57 221.057 173.958 220.637 173.178C220.229 172.386 220.025 171.492 220.025 170.496ZM228.143 170.532C228.143 169.848 227.999 169.254 227.711 168.75C227.435 168.246 227.069 167.862 226.613 167.598C226.157 167.334 225.665 167.202 225.137 167.202C224.609 167.202 224.117 167.334 223.661 167.598C223.205 167.85 222.833 168.228 222.545 168.732C222.269 169.224 222.131 169.812 222.131 170.496C222.131 171.18 222.269 171.78 222.545 172.296C222.833 172.812 223.205 173.208 223.661 173.484C224.129 173.748 224.621 173.88 225.137 173.88C225.665 173.88 226.157 173.748 226.613 173.484C227.069 173.22 227.435 172.836 227.711 172.332C227.999 171.816 228.143 171.216 228.143 170.532ZM234.961 167.058C235.309 166.578 235.783 166.188 236.383 165.888C236.995 165.576 237.673 165.42 238.417 165.42C239.293 165.42 240.085 165.63 240.793 166.05C241.501 166.47 242.059 167.07 242.467 167.85C242.875 168.618 243.079 169.5 243.079 170.496C243.079 171.492 242.875 172.386 242.467 173.178C242.059 173.958 241.495 174.57 240.775 175.014C240.067 175.446 239.281 175.662 238.417 175.662C237.649 175.662 236.965 175.512 236.365 175.212C235.777 174.912 235.309 174.528 234.961 174.06V175.5H232.909V162.18H234.961V167.058ZM240.991 170.496C240.991 169.812 240.847 169.224 240.559 168.732C240.283 168.228 239.911 167.85 239.443 167.598C238.987 167.334 238.495 167.202 237.967 167.202C237.451 167.202 236.959 167.334 236.491 167.598C236.035 167.862 235.663 168.246 235.375 168.75C235.099 169.254 234.961 169.848 234.961 170.532C234.961 171.216 235.099 171.816 235.375 172.332C235.663 172.836 236.035 173.22 236.491 173.484C236.959 173.748 237.451 173.88 237.967 173.88C238.495 173.88 238.987 173.748 239.443 173.484C239.911 173.208 240.283 172.812 240.559 172.296C240.847 171.78 240.991 171.18 240.991 170.496ZM247.16 162.18V175.5H245.108V162.18H247.16ZM258.944 170.298C258.944 170.67 258.92 171.006 258.872 171.306H251.294C251.354 172.098 251.648 172.734 252.176 173.214C252.704 173.694 253.352 173.934 254.12 173.934C255.224 173.934 256.004 173.472 256.46 172.548H258.674C258.374 173.46 257.828 174.21 257.036 174.798C256.256 175.374 255.284 175.662 254.12 175.662C253.172 175.662 252.32 175.452 251.564 175.032C250.82 174.6 250.232 174 249.8 173.232C249.38 172.452 249.17 171.552 249.17 170.532C249.17 169.512 249.374 168.618 249.782 167.85C250.202 167.07 250.784 166.47 251.528 166.05C252.284 165.63 253.148 165.42 254.12 165.42C255.056 165.42 255.89 165.624 256.622 166.032C257.354 166.44 257.924 167.016 258.332 167.76C258.74 168.492 258.944 169.338 258.944 170.298ZM256.802 169.65C256.79 168.894 256.52 168.288 255.992 167.832C255.464 167.376 254.81 167.148 254.03 167.148C253.322 167.148 252.716 167.376 252.212 167.832C251.708 168.276 251.408 168.882 251.312 169.65H256.802Z" fill="#B0B6BE"/>
</svg>
