<svg width="50" height="18" viewBox="0 0 50 18" fill="none" xmlns="http://www.w3.org/2000/svg">
<path d="M46.25 0H3.75C1.687 0 0 1.687 0 3.75V13.75C0 15.813 1.687 17.5 3.75 17.5H46.25C48.313 17.5 50 15.813 50 13.75V3.75C50 1.687 48.313 0 46.25 0ZM47.5 13.75C47.5 14.4385 46.9385 15 46.25 15H3.75C3.0615 15 2.5 14.4385 2.5 13.75V3.75C2.5 3.0615 3.06152 2.5 3.75 2.5H46.25C46.9385 2.5 47.5 3.06152 47.5 3.75V13.75ZM23.3737 7.12375L21.7502 8.74975L23.3762 10.3757C23.8767 10.8762 23.8767 11.6258 23.3762 12.1263C23.1247 12.3753 22.8122 12.4998 22.4998 12.4998C22.1873 12.4998 21.8748 12.3753 21.6257 12.1238L19.9998 10.5002L18.3737 12.1263C18.1247 12.3753 17.8122 12.4998 17.4998 12.4998C17.1873 12.4998 16.8748 12.3753 16.6257 12.1238C16.1253 11.6233 16.1253 10.8738 16.6257 10.3733L18.2518 8.74731L16.6257 7.12131C16.1253 6.62082 16.1253 5.87131 16.6257 5.37081C17.1262 4.87033 17.8758 4.87033 18.3763 5.37081L20.0023 6.99681L21.6283 5.37081C22.1287 4.87033 22.8783 4.87033 23.3787 5.37081C23.8744 5.87374 23.8742 6.62569 23.3737 7.12375ZM13.3738 7.12375L11.7502 8.74975L13.3762 10.3757C13.8767 10.8762 13.8767 11.6258 13.3762 12.1263C13.1247 12.3753 12.8122 12.4998 12.4998 12.4998C12.1873 12.4998 11.8747 12.3753 11.6257 12.1238L9.99975 10.5002L8.37375 12.1263C8.12473 12.3753 7.81222 12.4998 7.49975 12.4998C7.18727 12.4998 6.87475 12.3753 6.62575 12.1238C6.12526 11.6233 6.12526 10.8738 6.62575 10.3733L8.25175 8.74731L6.62575 7.12131C6.12526 6.62082 6.12526 5.87131 6.62575 5.37081C7.12624 4.87033 7.87575 4.87033 8.37625 5.37081L10.0022 6.99681L11.6283 5.37081C12.1287 4.87033 12.8783 4.87033 13.3787 5.37081C13.8744 5.87374 13.8742 6.62569 13.3738 7.12375ZM33.3737 7.12375L31.7502 8.74975L33.3762 10.3757C33.8767 10.8762 33.8767 11.6258 33.3762 12.1263C33.1247 12.3753 32.8122 12.4998 32.4997 12.4998C32.1873 12.4998 31.8748 12.3753 31.6257 12.1238L29.9998 10.5002L28.3737 12.1263C28.1247 12.3753 27.8122 12.4998 27.4998 12.4998C27.1873 12.4998 26.8748 12.3753 26.6257 12.1238C26.1253 11.6233 26.1253 10.8738 26.6257 10.3733L28.2518 8.74731L26.6257 7.12131C26.1253 6.62082 26.1253 5.87131 26.6257 5.37081C27.1262 4.87033 27.8758 4.87033 28.3763 5.37081L30.0023 6.99681L31.6283 5.37081C32.1287 4.87033 32.8783 4.87033 33.3787 5.37081C33.8744 5.87374 33.8742 6.62569 33.3737 7.12375ZM43.3738 7.12375L41.7502 8.74975L43.3762 10.3757C43.8767 10.8762 43.8767 11.6258 43.3762 12.1263C43.1247 12.3753 42.8122 12.4998 42.4998 12.4998C42.1873 12.4998 41.8747 12.3753 41.6257 12.1238L39.9998 10.5002L38.3738 12.1263C38.1247 12.3753 37.8122 12.4998 37.4998 12.4998C37.1873 12.4998 36.8747 12.3753 36.6257 12.1238C36.1253 11.6233 36.1253 10.8738 36.6257 10.3733L38.2517 8.74731L36.6257 7.12131C36.1253 6.62082 36.1253 5.87131 36.6257 5.37081C37.1262 4.87033 37.8758 4.87033 38.3763 5.37081L40.0023 6.99681L41.6283 5.37081C42.1287 4.87033 42.8783 4.87033 43.3787 5.37081C43.8744 5.87374 43.8742 6.62569 43.3738 7.12375Z" fill="#007B2D"/>
</svg>
