<svg width="18" height="12" viewBox="0 0 18 12" fill="none" xmlns="http://www.w3.org/2000/svg">
<path d="M0.75 12V9.9C0.75 9.475 0.859375 9.08437 1.07813 8.72812C1.29688 8.37187 1.5875 8.1 1.95 7.9125C2.725 7.525 3.5125 7.23437 4.3125 7.04062C5.1125 6.84687 5.925 6.75 6.75 6.75C7.575 6.75 8.3875 6.84687 9.1875 7.04062C9.9875 7.23437 10.775 7.525 11.55 7.9125C11.9125 8.1 12.2031 8.37187 12.4219 8.72812C12.6406 9.08437 12.75 9.475 12.75 9.9V12H0.75ZM14.25 12V9.75C14.25 9.2 14.0969 8.67187 13.7906 8.16562C13.4844 7.65937 13.05 7.225 12.4875 6.8625C13.125 6.9375 13.725 7.06562 14.2875 7.24687C14.85 7.42812 15.375 7.65 15.8625 7.9125C16.3125 8.1625 16.6563 8.44062 16.8938 8.74687C17.1313 9.05312 17.25 9.3875 17.25 9.75V12H14.25ZM6.75 6C5.925 6 5.21875 5.70625 4.63125 5.11875C4.04375 4.53125 3.75 3.825 3.75 3C3.75 2.175 4.04375 1.46875 4.63125 0.88125C5.21875 0.29375 5.925 0 6.75 0C7.575 0 8.28125 0.29375 8.86875 0.88125C9.45625 1.46875 9.75 2.175 9.75 3C9.75 3.825 9.45625 4.53125 8.86875 5.11875C8.28125 5.70625 7.575 6 6.75 6ZM14.25 3C14.25 3.825 13.9563 4.53125 13.3688 5.11875C12.7813 5.70625 12.075 6 11.25 6C11.1125 6 10.9375 5.98437 10.725 5.95312C10.5125 5.92187 10.3375 5.8875 10.2 5.85C10.5375 5.45 10.7969 5.00625 10.9781 4.51875C11.1594 4.03125 11.25 3.525 11.25 3C11.25 2.475 11.1594 1.96875 10.9781 1.48125C10.7969 0.99375 10.5375 0.55 10.2 0.15C10.375 0.0875 10.55 0.046875 10.725 0.028125C10.9 0.009375 11.075 0 11.25 0C12.075 0 12.7813 0.29375 13.3688 0.88125C13.9563 1.46875 14.25 2.175 14.25 3ZM2.25 10.5H11.25V9.9C11.25 9.7625 11.2156 9.6375 11.1469 9.525C11.0781 9.4125 10.9875 9.325 10.875 9.2625C10.2 8.925 9.51875 8.67187 8.83125 8.50312C8.14375 8.33437 7.45 8.25 6.75 8.25C6.05 8.25 5.35625 8.33437 4.66875 8.50312C3.98125 8.67187 3.3 8.925 2.625 9.2625C2.5125 9.325 2.42188 9.4125 2.35313 9.525C2.28438 9.6375 2.25 9.7625 2.25 9.9V10.5ZM6.75 4.5C7.1625 4.5 7.51563 4.35312 7.80938 4.05937C8.10313 3.76562 8.25 3.4125 8.25 3C8.25 2.5875 8.10313 2.23437 7.80938 1.94062C7.51563 1.64687 7.1625 1.5 6.75 1.5C6.3375 1.5 5.98438 1.64687 5.69063 1.94062C5.39688 2.23437 5.25 2.5875 5.25 3C5.25 3.4125 5.39688 3.76562 5.69063 4.05937C5.98438 4.35312 6.3375 4.5 6.75 4.5Z" fill="#C78500"/>
</svg>
