<svg width="20" height="20" viewBox="0 0 20 20" fill="none" xmlns="http://www.w3.org/2000/svg">
<path d="M0.400391 5.20039V0.400391H5.20039V2.32039H2.32039V5.20039H0.400391ZM0.400391 19.6004V14.8004H2.32039V17.6804H5.20039V19.6004H0.400391ZM14.8004 19.6004V17.6804H17.6804V14.8004H19.6004V19.6004H14.8004ZM17.6804 5.20039V2.32039H14.8004V0.400391H19.6004V5.20039H17.6804ZM15.2804 15.2804H16.7204V16.7204H15.2804V15.2804ZM15.2804 12.4004H16.7204V13.8404H15.2804V12.4004ZM13.8404 13.8404H15.2804V15.2804H13.8404V13.8404ZM12.4004 15.2804H13.8404V16.7204H12.4004V15.2804ZM10.9604 13.8404H12.4004V15.2804H10.9604V13.8404ZM13.8404 10.9604H15.2804V12.4004H13.8404V10.9604ZM12.4004 12.4004H13.8404V13.8404H12.4004V12.4004ZM10.9604 10.9604H12.4004V12.4004H10.9604V10.9604ZM16.7204 3.28039V9.04039H10.9604V3.28039H16.7204ZM9.04039 10.9604V16.7204H3.28039V10.9604H9.04039ZM9.04039 3.28039V9.04039H3.28039V3.28039H9.04039ZM7.60039 15.2804V12.4004H4.72039V15.2804H7.60039ZM7.60039 7.60039V4.72039H4.72039V7.60039H7.60039ZM15.2804 7.60039V4.72039H12.4004V7.60039H15.2804Z" fill="#7C7C7C"/>
</svg>
