<svg width="32" height="32" viewBox="0 0 32 32" fill="none" xmlns="http://www.w3.org/2000/svg">
<path fill-rule="evenodd" clip-rule="evenodd" d="M20.2679 32C20.2705 32 20.273 32 20.2756 32H20.2607C20.2631 32 20.2655 32 20.2679 32ZM17.5345 30.7346C18.3665 31.3434 19.2875 31.9966 20.2679 32C20.5036 31.9991 20.7249 31.9546 20.9609 31.8809C22.2155 31.4532 22.6804 30.0757 23.0945 28.8486L23.1061 28.8143C23.2998 28.2486 23.5978 27.3851 23.8361 27.2065C24.0745 27.0279 24.9385 26.9832 25.5047 26.9832C25.5281 26.9824 25.5517 26.9815 25.5752 26.9807C26.8095 26.937 28.2007 26.8878 28.9609 25.7923C29.6992 24.7299 29.3106 23.3459 28.97 22.1329L28.9609 22.1004C28.7821 21.4751 28.5438 20.6117 28.648 20.2693C28.7374 19.9716 29.3929 19.4505 29.8696 19.0784L29.8779 19.0718C30.874 18.2695 32 17.3627 32 15.9968C32 14.631 30.874 13.7242 29.8779 12.9219L29.8696 12.9153C29.3929 12.5431 28.7374 12.0221 28.648 11.7244C28.5438 11.382 28.7821 10.5186 28.9609 9.89332C29.3184 8.67261 29.7058 7.27327 28.9609 6.20143C28.1862 5.08493 26.7561 5.04027 25.5047 5.01049C24.9385 4.99561 24.0745 4.96583 23.8361 4.78719C23.5972 4.61863 23.3317 3.84036 23.1398 3.27783C23.1283 3.2442 23.1171 3.21135 23.1061 3.17944C22.7039 1.94384 22.2272 0.544497 20.9609 0.112784C19.7329 -0.301167 18.5784 0.518167 17.5557 1.24395L17.5345 1.25906L17.5262 1.26508C17.0348 1.62216 16.3259 2.13737 16 2.13737C15.6867 2.13737 15.0058 1.64762 14.53 1.30537C14.508 1.2896 14.4866 1.27414 14.4656 1.25906C13.4525 0.514724 12.2905 -0.304042 11.0391 0.112784C9.78454 0.540498 9.31961 1.918 8.90546 3.14506L8.89386 3.17944C8.70019 3.74513 8.40224 4.60855 8.16387 4.78719C7.92551 4.96583 7.06145 5.01049 6.49534 5.01049C6.47188 5.01133 6.44835 5.01216 6.42477 5.013C5.19054 5.05665 3.79925 5.10586 3.03911 6.20143C2.30083 7.26377 2.68942 8.64783 3.02998 9.86082L3.03911 9.89332C3.21788 10.5186 3.45624 11.382 3.35196 11.7244C3.26257 12.0221 2.60708 12.5431 2.13035 12.9153L2.12214 12.9219C1.12602 13.7242 0 14.631 0 15.9968C0 17.3627 1.12602 18.2695 2.12214 19.0718L2.13035 19.0784C2.60708 19.4505 3.26257 19.9716 3.35196 20.2693C3.45624 20.6117 3.21788 21.4751 3.03911 22.1004C2.68156 23.3211 2.29423 24.7204 3.03911 25.7923C3.81378 26.9088 5.24395 26.9534 6.49534 26.9832C7.06145 26.9981 7.92551 27.0279 8.16387 27.2065C8.40285 27.3751 8.66835 28.1533 8.86025 28.7159C8.87172 28.7495 8.88293 28.7823 8.89386 28.8143C9.29609 30.0498 9.77281 31.4492 11.0391 31.8809C12.2723 32.2917 13.4041 31.4881 14.4205 30.7666L14.4656 30.7346L14.4738 30.7286C14.9652 30.3715 15.6741 29.8563 16 29.8563C16.3133 29.8563 16.9942 30.3461 17.47 30.6883C17.492 30.7041 17.5135 30.7196 17.5345 30.7346ZM13.8473 19.5129C14.0573 19.7232 14.3233 19.8213 14.5893 19.8213C14.8553 19.8213 15.1213 19.7232 15.3313 19.5129L20.9313 13.9053C21.3373 13.4988 21.3373 12.8258 20.9313 12.4193C20.5253 12.0127 19.8533 12.0127 19.4473 12.4193L14.5893 17.2839L12.5313 15.2231C12.1253 14.8165 11.4533 14.8165 11.0473 15.2231C10.6413 15.6296 10.6413 16.3026 11.0473 16.7091L13.8473 19.5129Z" fill="#1C85E7"/>
</svg>
