<svg width="11" height="11" viewBox="0 0 11 11" fill="none" xmlns="http://www.w3.org/2000/svg">
<path fill-rule="evenodd" clip-rule="evenodd" d="M5.5 10.5C4.80964 10.5 4.25 9.94036 4.25 9.25L4.25125 4.76125L2.63571 6.38205C2.18604 6.83359 1.47707 6.86972 0.985919 6.48945L0.867946 6.38571C0.416411 5.93603 0.380283 5.22707 0.76055 4.73592L0.864294 4.61794L4.59883 0.867945C5.0485 0.416407 5.75748 0.380282 6.24863 0.760556L6.3666 0.864299L10.1321 4.6143C10.6212 5.10145 10.6229 5.8929 10.1357 6.38206C9.68602 6.83359 8.97706 6.86971 8.48591 6.48944L8.36794 6.3857L6.75125 4.77625L6.75 9.25C6.75 9.94036 6.19036 10.5 5.5 10.5Z" fill="#1D8844"/>
</svg>
